<?xml version="1.0" encoding="utf-8"?>
<!-- Generator: Adobe Illustrator 16.0.0, SVG Export Plug-In . SVG Version: 6.00 Build 0)  -->
<!DOCTYPE svg PUBLIC "-//W3C//DTD SVG 1.1//EN" "http://www.w3.org/Graphics/SVG/1.1/DTD/svg11.dtd">
<svg version="1.1" xmlns="http://www.w3.org/2000/svg" xmlns:xlink="http://www.w3.org/1999/xlink" x="0px" y="0px" width="576px"
	 height="576px" viewBox="0 0 576 576" enable-background="new 0 0 576 576" xml:space="preserve">
<g id="Layer_1" display="none">
	<circle fill="#56CBF5" cx="288" cy="288" r="287.75"/>
	<path display="inline" d="M238.292,447.607c-25.862-24.628-1.231-147.781-1.231-147.781c-9.852,12.318-37.605,22.677-54.846,22.677
		c-17.242,0-49.219-41.412-43.32-54.366c4.592-10.087,19.943-22.261,34.126-27.422c8.813-3.208,20.936-33.249,20.936-33.249
		s-7.389-44.335,22.168-55.419c29.557-11.083,22.591-0.652,22.591-0.652s-8.548-41.618,74.698-12.895
		c26.011,8.975,53.316,30.395,54.555,37.049c-24.773-0.275-26.058,3.042-42.241,13.44c-13.102,8.419,22.166-39.409,78.813,38.178
		c16.973,23.243,28.206,30.738,22.963,44.723c-12.343-7.506-38.583-3.447-63.597-33.639c-35.715-43.101,97.516,43.405,70.194,86.204
		c-15.235,23.867-19.411,34.992-13.386,59.952c-8.924,0.155-21.938-61.646-69.115-31.023
		C295.134,390.036,238.292,447.607,238.292,447.607z"/>
	<path display="inline" d="M230.096,60.411"/>
</g>
<g id="Layer_1_copy" display="none">
	<circle display="inline" fill="#78C47E" cx="288" cy="288" r="287.75"/>
	<g display="inline">
		<path d="M319.092,353.898c0,8.594-6.966,15.561-15.558,15.561h-31.099c-8.593,0-15.559-6.967-15.559-15.561v-4.859H128.589v65.115
			c0,8.594,6.966,15.559,15.558,15.559h287.707c8.592,0,15.558-6.965,15.558-15.559v-65.115H319.107v4.859H319.092z"/>
		<path d="M431.839,184.773h-82.635V143.95c0-8.592-6.95-15.558-15.558-15.558h-91.323c-8.607,0-15.557,6.966-15.557,15.558v40.823
			h-82.619c-8.592,0-15.558,6.966-15.558,15.558v136.083h128.304v-32.072c0-8.592,6.965-15.558,15.558-15.558h31.1
			c8.592,0,15.557,6.966,15.557,15.558v32.072h128.289V200.331C447.396,191.739,440.431,184.773,431.839,184.773z M242.323,143.95
			h91.323v40.823h-91.323V143.95z"/>
		<polygon points="303.551,336.414 303.551,325.83 303.551,304.326 272.436,304.326 272.436,325.83 272.436,336.414 272.436,353.15 
			303.551,353.15 		"/>
	</g>
</g>
<g id="Layer_1_copy_2">
	<circle fill="#FBF071" cx="288" cy="288" r="287.75"/>
	<g>
		<g>
			<path d="M177.965,429.554c-6.032,0-10.929,4.887-10.929,10.919c0,6.049,4.9,10.942,10.929,10.942
				c6.036,0,10.929-4.894,10.929-10.942C188.897,434.44,184.004,429.554,177.965,429.554z"/>
			<circle cx="204.922" cy="400.679" r="17.466"/>
			<path d="M442.352,254.196c0-30.052-24.358-54.406-54.412-54.406c-2.089,0-4.136,0.14-6.163,0.374
				c-4.334-23.645-25.021-41.58-49.919-41.58c-17.997,0-33.776,9.387-42.8,23.515c-10.073-10.282-24.091-16.688-39.617-16.688
				c-30.631,0-55.454,24.829-55.454,55.453c0,4.406,0.566,8.675,1.526,12.781c-18.742,8.18-31.864,26.863-31.864,48.627
				c0,25.92,18.615,47.476,43.2,52.111c-0.052,0.732-0.12,1.452-0.12,2.2c0,19.243,15.595,34.838,34.831,34.838
				c9.641,0,18.368-3.914,24.67-10.245c9.687,14.985,26.519,24.933,45.692,24.933c23.642,0,43.704-15.101,51.201-36.155
				c4.818,2.518,10.295,3.972,16.115,3.972c19.233,0,34.832-15.602,34.832-34.838c0-5.541-1.328-10.753-3.622-15.402
				C429.256,295.115,442.352,276.208,442.352,254.196z"/>
		</g>
	</g>
</g>
</svg>
