<?xml version="1.0" encoding="utf-8"?>
<!-- Generator: Adobe Illustrator 16.0.0, SVG Export Plug-In . SVG Version: 6.00 Build 0)  -->
<!DOCTYPE svg PUBLIC "-//W3C//DTD SVG 1.1//EN" "http://www.w3.org/Graphics/SVG/1.1/DTD/svg11.dtd">
<svg version="1.1" id="Layer_1" xmlns="http://www.w3.org/2000/svg" xmlns:xlink="http://www.w3.org/1999/xlink" x="0px" y="0px"
	 width="576px" height="576px" viewBox="0 0 576 576" enable-background="new 0 0 576 576" xml:space="preserve">
<g id="Layer_1_1_">
	<circle fill="#56CBF5" cx="288" cy="288" r="287.75"/>
	<path d="M238.292,447.607c-25.862-24.629-1.231-147.781-1.231-147.781c-9.852,12.318-37.605,22.677-54.846,22.677
		c-17.242,0-49.219-41.412-43.32-54.366c4.592-10.087,19.943-22.261,34.126-27.422c8.813-3.208,20.936-33.249,20.936-33.249
		s-7.389-44.335,22.168-55.419c29.557-11.083,22.591-0.652,22.591-0.652s-8.548-41.618,74.698-12.895
		c26.011,8.975,53.316,30.395,54.555,37.049c-24.772-0.275-26.058,3.042-42.241,13.44c-13.102,8.419,22.166-39.409,78.813,38.178
		c16.973,23.243,28.206,30.738,22.963,44.723c-12.343-7.506-38.583-3.447-63.597-33.639c-35.715-43.101,97.516,43.405,70.193,86.204
		c-15.234,23.867-19.41,34.992-13.386,59.952c-8.924,0.155-21.938-61.646-69.115-31.023
		C295.134,390.036,238.292,447.607,238.292,447.607z"/>
	<path d="M230.096,60.411"/>
</g>
</svg>
