<?xml version="1.0" encoding="utf-8"?>
<!-- Generator: Adobe Illustrator 16.0.0, SVG Export Plug-In . SVG Version: 6.00 Build 0)  -->
<!DOCTYPE svg PUBLIC "-//W3C//DTD SVG 1.1//EN" "http://www.w3.org/Graphics/SVG/1.1/DTD/svg11.dtd">
<svg version="1.1" id="Layer_1_copy_2" xmlns="http://www.w3.org/2000/svg" xmlns:xlink="http://www.w3.org/1999/xlink" x="0px"
	 y="0px" width="576px" height="576px" viewBox="0 0 576 576" enable-background="new 0 0 576 576" xml:space="preserve">
<circle fill="#EA6D42" cx="288" cy="288" r="287.75"/>
<g>
	<g>
		<path d="M177.965,429.554c-6.032,0-10.929,4.888-10.929,10.919c0,6.05,4.9,10.942,10.929,10.942
			c6.036,0,10.929-4.895,10.929-10.942C188.897,434.44,184.004,429.554,177.965,429.554z"/>
		<circle cx="204.922" cy="400.679" r="17.466"/>
		<path d="M442.352,254.196c0-30.052-24.357-54.406-54.411-54.406c-2.09,0-4.137,0.14-6.163,0.374
			c-4.334-23.645-25.021-41.58-49.919-41.58c-17.997,0-33.776,9.387-42.8,23.515c-10.074-10.282-24.092-16.688-39.618-16.688
			c-30.631,0-55.454,24.829-55.454,55.453c0,4.406,0.566,8.675,1.526,12.781c-18.742,8.18-31.864,26.863-31.864,48.627
			c0,25.919,18.615,47.476,43.2,52.111c-0.052,0.732-0.12,1.452-0.12,2.2c0,19.243,15.595,34.838,34.831,34.838
			c9.641,0,18.368-3.914,24.67-10.245c9.687,14.985,26.519,24.934,45.692,24.934c23.643,0,43.704-15.102,51.201-36.155
			c4.818,2.519,10.295,3.972,16.115,3.972c19.232,0,34.832-15.602,34.832-34.838c0-5.541-1.328-10.753-3.622-15.402
			C429.256,295.115,442.352,276.208,442.352,254.196z"/>
	</g>
</g>
</svg>
